<?xml version="1.0" encoding="UTF-8"?>
<svg id="Layer_1" data-name="Layer 1" xmlns="http://www.w3.org/2000/svg" viewBox="0 0 338.89 306.88">
  <defs>
    <style>
      .cls-1 {
        fill: #fff;
      }
    </style>
  </defs>
  <g id="ASE-SYMBOL">
    <path class="cls-1" d="M169.44,232.66c42.38,0,82.75,8.64,119.44,24.23-11.65-20.19-23.31-40.37-34.96-60.56l-10.06-6.66c-33.81-22.36-47.76-29.68-74.42-29.68s-40.61,7.32-74.42,29.68l-10.06,6.66-34.96,60.56c36.7-15.58,77.06-24.22,119.44-24.23Z"/>
    <path class="cls-1" d="M169.44,50l-38.64,66.92c12.66-1.6,25.54-2.52,38.64-2.52,13.1,0,25.97.92,38.64,2.52-4.97-8.61-9.94-17.21-14.91-25.82-7.91-13.7-15.82-27.4-23.73-41.1Z"/>
  </g>
</svg>