<?xml version="1.0" encoding="UTF-8"?>
<svg id="Layer_1" data-name="Layer 1" xmlns="http://www.w3.org/2000/svg" viewBox="0 0 383.46 183.67">
  <defs>
    <style>
      .cls-1 {
        fill: #fff;
      }
    </style>
  </defs>
  <g id="ASE-HORIZONTAL">
    <g>
      <path class="cls-1" d="M178.22,116.25h-15.52l17.67-42.62h18.38l17.67,42.62h-15.88l-2.27-6.27h-17.85l-2.21,6.27ZM189.38,84.97l-4.95,13.73h9.85l-4.89-13.73Z"/>
      <path class="cls-1" d="M260.17,103.65c0-.64-.31-1.15-.92-1.55-.62-.4-1.68-.72-3.19-.95l-7.7-1.2c-5.89-.91-10.25-2.51-13.07-4.77-2.82-2.27-4.24-5.27-4.24-9.01,0-4.26,1.95-7.59,5.85-10,3.9-2.41,9.27-3.61,16.12-3.61,12.93,0,19.98,4.48,21.13,13.43l-14.62,1.25c-.52-1.51-1.32-2.59-2.42-3.22-1.1-.63-2.65-.95-4.69-.95s-3.59.23-4.68.68c-1.1.46-1.64,1.13-1.64,2,0,.64.24,1.11.72,1.43.48.32,1.41.6,2.81.84l9.67,1.61c5.77.96,9.9,2.47,12.39,4.54,2.49,2.07,3.73,5.05,3.73,8.95,0,9.47-7.54,14.21-22.62,14.21s-21.95-5.15-22.86-15.46h15.1c.64,3.3,3.24,4.95,7.82,4.95,4.89,0,7.34-1.05,7.34-3.16Z"/>
      <path class="cls-1" d="M293.41,73.63h38.56v10.93h-23.52v4.77h22.32v10.86h-22.32v5.13h25.01l-1.25,10.92h-38.8v-42.62Z"/>
    </g>
    <g>
      <path class="cls-1" d="M98.31,123.87c17.14,0,33.46,3.5,48.31,9.8-4.71-8.16-9.43-16.33-14.14-24.49l-4.07-2.69c-13.68-9.04-19.31-12-30.1-12s-16.42,2.96-30.1,12l-4.07,2.69-14.14,24.49c14.84-6.3,31.17-9.79,48.31-9.8Z"/>
      <path class="cls-1" d="M98.31,50l-15.63,27.06c5.12-.65,10.33-1.02,15.63-1.02,5.3,0,10.5.37,15.63,1.02-2.01-3.48-4.02-6.96-6.03-10.44-3.2-5.54-6.4-11.08-9.6-16.62Z"/>
    </g>
  </g>
</svg>