<?xml version="1.0" encoding="UTF-8"?>
<svg id="Layer_1" data-name="Layer 1" xmlns="http://www.w3.org/2000/svg" viewBox="0 0 353.62 334.91">
  <defs>
    <style>
      .cls-1 {
        fill: #fff;
      }
    </style>
  </defs>
  <g id="ASE-VERTICAL">
    <g>
      <path class="cls-1" d="M73.05,283.31h-23.05l26.24-63.3h27.3l26.24,63.3h-23.58l-3.37-9.31h-26.51l-3.28,9.31ZM89.63,236.86l-7.36,20.39h14.63l-7.27-20.39Z"/>
      <path class="cls-1" d="M194.76,264.61c0-.95-.46-1.71-1.37-2.31-.92-.59-2.5-1.06-4.74-1.42l-11.44-1.78c-8.74-1.36-15.22-3.72-19.41-7.09-4.19-3.37-6.29-7.83-6.29-13.39,0-6.32,2.89-11.27,8.69-14.85,5.79-3.58,13.77-5.36,23.94-5.36,19.2,0,29.67,6.65,31.38,19.94l-21.72,1.86c-.77-2.25-1.97-3.84-3.59-4.79-1.63-.94-3.94-1.41-6.96-1.41s-5.33.34-6.96,1.02c-1.63.68-2.44,1.67-2.44,2.97,0,.95.35,1.65,1.06,2.12.71.47,2.1.89,4.17,1.24l14.36,2.39c8.57,1.42,14.7,3.67,18.4,6.74,3.69,3.07,5.54,7.5,5.54,13.29,0,14.07-11.2,21.1-33.6,21.1s-32.6-7.65-33.95-22.96h22.43c.94,4.9,4.82,7.36,11.61,7.36,7.27,0,10.9-1.57,10.9-4.7Z"/>
      <path class="cls-1" d="M244.14,220.01h57.27v16.23h-34.93v7.09h33.15v16.14h-33.15v7.62h37.14l-1.86,16.22h-57.62v-63.3Z"/>
    </g>
    <g>
      <path class="cls-1" d="M178.14,163.71c26.38,0,51.51,5.38,74.36,15.08-7.25-12.57-14.51-25.13-21.76-37.7l-6.26-4.15c-21.05-13.92-29.73-18.47-46.33-18.47s-25.28,4.56-46.33,18.47l-6.26,4.15-21.76,37.7c22.85-9.7,47.97-15.08,74.36-15.08Z"/>
      <path class="cls-1" d="M178.14,50l-24.05,41.66c7.88-1,15.9-1.57,24.05-1.57,8.15,0,16.17.57,24.05,1.57-3.09-5.36-6.19-10.71-9.28-16.07-4.92-8.53-9.85-17.06-14.77-25.59Z"/>
    </g>
  </g>
</svg>