<svg width="1200" height="900" viewBox="0 0 1200 900" fill="none" xmlns="http://www.w3.org/2000/svg">
  <rect width="1200" height="900" fill="#F5F5F5"/>
  <rect y="560" width="1200" height="340" fill="#E5E5E5"/>
  <g opacity="0.14" stroke="#38469D" stroke-width="1">
    <path d="M0 140H1200"/><path d="M0 280H1200"/><path d="M0 420H1200"/><path d="M0 560H1200"/>
    <path d="M150 0V900"/><path d="M300 0V900"/><path d="M450 0V900"/><path d="M600 0V900"/><path d="M750 0V900"/><path d="M900 0V900"/><path d="M1050 0V900"/>
  </g>
  <rect x="110" y="250" width="320" height="360" fill="#272729"/>
  <rect x="430" y="330" width="110" height="280" fill="#38469D"/>
  <rect x="540" y="300" width="340" height="80" fill="#38469D"/>
  <rect x="850" y="240" width="90" height="370" fill="#272729"/>
  <rect x="270" y="430" width="620" height="26" fill="#C52B35" opacity="0.9"/>
  <g fill="#F5F5F5">
    <circle cx="360" cy="444" r="12"/><circle cx="470" cy="444" r="12"/><circle cx="580" cy="444" r="12"/><circle cx="690" cy="444" r="12"/><circle cx="800" cy="444" r="12"/>
  </g>
  <path d="M120 660H1040" stroke="#38469D" stroke-width="3" stroke-dasharray="10 10"/>
  <path d="M980 210L1090 120" stroke="#272729" stroke-width="16" stroke-linecap="round"/>
  <path d="M930 240L1040 150" stroke="#8A8A8A" stroke-width="4" stroke-linecap="round"/>
</svg>
